<svg width="34" height="37" viewBox="0 0 34 37" fill="none" xmlns="http://www.w3.org/2000/svg">
<mask id="mask0_11244_1745" style="mask-type:alpha" maskUnits="userSpaceOnUse" x="0" y="0" width="34" height="37">
<path d="M17 36.4286C26.3888 36.4286 34 28.8174 34 19.4286C34 10.0397 26.3888 0 17 0C7.61116 0 0 10.0397 0 19.4286C0 28.8174 7.61116 36.4286 17 36.4286Z" fill="#F23B77"/>
</mask>
<g mask="url(#mask0_11244_1745)">
<path d="M12.8858 7.74012V11.828C12.8858 13.5932 14.64 15.2857 16.9394 15.2857C19.2387 15.2857 20.9929 13.5932 20.9929 11.828V7.74012C20.9929 5.91409 20.5054 4.3891 19.7523 3.33467C19.001 2.28267 18.002 1.71426 16.9394 1.71426C15.8585 1.71426 14.863 2.23276 14.1223 3.23978C13.3762 4.254 12.8858 5.77373 12.8858 7.74012Z" stroke="#212529"/>
<path fill-rule="evenodd" clip-rule="evenodd" d="M10.7659 11.263C10.9807 9.60421 11.5793 8.17542 12.4059 7.04834C12.4536 6.24103 12.585 5.50666 12.7861 4.85219C11.126 6.28759 9.90161 8.48232 9.56168 11.107C9.3416 12.8064 9.12393 17.158 8.93918 21.8571H10.1545C10.3387 17.1801 10.5535 12.9028 10.7659 11.263ZM10.1076 23.0714H8.89243C8.86191 23.8804 8.83243 24.6937 8.80413 25.5H10.0192C10.0476 24.6918 10.0771 23.8786 10.1076 23.0714ZM9.97719 26.7143H8.7622C8.66455 29.5878 8.58299 32.3074 8.52487 34.3468C8.49399 35.4307 8.46972 36.3225 8.45317 36.9435C8.4449 37.254 8.43855 37.4967 8.43428 37.6619L8.42943 37.8502L8.4282 37.8984L8.42789 37.9107L8.42782 37.9137L8.4278 37.9145C8.42779 37.9147 8.42779 37.9148 9.03474 37.9301L8.42779 37.9148L8.41209 38.5372H9.03474H24.2859H24.8954L24.893 37.9277L24.2859 37.9301C24.893 37.9277 24.893 37.9276 24.893 37.9274L24.893 37.9265L24.893 37.9229L24.893 37.9086L24.8927 37.8524L24.8917 37.6331C24.8907 37.4409 24.8892 37.1588 24.887 36.799C24.8825 36.0793 24.8751 35.0486 24.8637 33.804C24.8408 31.3149 24.8015 27.9696 24.7356 24.5459C24.7145 23.4471 24.6906 22.3399 24.6637 21.25H23.449C23.4762 22.3465 23.5002 23.4617 23.5215 24.5692C23.5873 27.9875 23.6266 31.3284 23.6495 33.8151C23.6609 35.0584 23.6682 36.0879 23.6727 36.8065L23.6757 37.3229H9.65783L9.66703 36.9758C9.68356 36.3555 9.7078 35.4644 9.73866 34.3814C9.79702 32.3336 9.87901 29.6001 9.97719 26.7143ZM23.4174 20.0357H24.6321C24.6095 19.2061 24.585 18.3926 24.5583 17.6071H23.3434C23.3701 18.3918 23.3947 19.2053 23.4174 20.0357ZM23.2994 16.3928H24.5146C24.4937 15.8458 24.4716 15.3169 24.4483 14.8106C24.3838 13.4076 24.3098 12.1732 24.2249 11.2083C24.1426 10.2738 24.0449 9.51536 23.911 9.12147C23.4675 7.81705 22.6768 6.27207 21.5515 5.0654C21.3504 4.84984 21.1371 4.64352 20.9116 4.45061C21.195 5.17429 21.3852 5.99675 21.4588 6.89427C22.0372 7.74093 22.4767 8.67525 22.7613 9.51232C22.8391 9.74114 22.9298 10.3439 23.0153 11.3147C23.0981 12.2551 23.1711 13.4702 23.2353 14.8664C23.2578 15.3551 23.2791 15.8653 23.2994 16.3928Z" fill="#212529"/>
</g>
<path d="M4.85719 21.25L1.21434 24.3725L4.85719 27.4949" stroke="#212529" stroke-width="2.42857" stroke-linecap="round" stroke-linejoin="round"/>
<line x1="3.64296" y1="24.2857" x2="18.2144" y2="24.2857" stroke="#212529" stroke-width="2.42857" stroke-linecap="round" stroke-linejoin="round"/>
<path d="M29.1429 15.7857L32.7858 18.9082L29.1429 22.0306" stroke="#212529" stroke-width="2.42857" stroke-linecap="round" stroke-linejoin="round"/>
<line x1="1.21429" y1="-1.21429" x2="15.7857" y2="-1.21429" transform="matrix(-1 0 0 1 31.5714 20.0358)" stroke="#212529" stroke-width="2.42857" stroke-linecap="round" stroke-linejoin="round"/>
</svg>
